<?xml version="1.0" encoding="utf-8"?>
<!-- Generator: Adobe Illustrator 19.0.0, SVG Export Plug-In . SVG Version: 6.00 Build 0)  -->
<svg version="1.1" id="Layer_1" xmlns="http://www.w3.org/2000/svg" xmlns:xlink="http://www.w3.org/1999/xlink" x="0px" y="0px"
	 viewBox="0 0 1024 408.9" style="enable-background:new 0 0 1024 408.9;" xml:space="preserve">
<style type="text/css">
	.st0{fill:#3D7FC1;}
	.st1{fill:#3391FE;}
	.st2{fill:#565656;}
</style>
<g id="XMLID_352_">
	<path id="XMLID_363_" class="st0" d="M996.4,393H19.5c-4.7,0-8.5-3.9-8.5-8.5s3.8-8.5,8.5-8.5h976.9c4.7,0,8.5,3.9,8.5,8.5
		S1001.1,393,996.4,393z"/>
	<path id="XMLID_362_" class="st0" d="M507.6,270.8c-2.6,0-5-1.4-6.3-3.7l-78.6-146.9c-1.8-3.4-0.4-7.5,3-9.3
		c3.5-1.7,7.8-0.4,9.6,2.9l78.6,146.9c1.8,3.4,0.4,7.5-3,9.3C509.8,270.6,508.7,270.8,507.6,270.8z"/>
	<path id="XMLID_361_" class="st1" d="M408.4,393h-389c-5.2,0-9.5-4.1-9.5-9.2s4.2-9.2,9.5-9.2h389c18.9,0,36-10.1,44.8-26.4
		L582.3,99.6c12-22.4,35.6-36.3,61.6-36.3H885l-35.3-31.8c-3.8-3.4-4-9.2-0.5-13c3.6-3.7,9.5-3.9,13.4-0.5l70.6,63.5H643.8
		c-18.9,0-36,10.1-44.8,26.4L470,356.7C458,379.1,434.4,393,408.4,393z"/>
	<g id="XMLID_359_">
		<path id="XMLID_360_" class="st2" d="M303.8,345.7c-26.5,0-48.6-9.1-64-26.3c-13.1-14.8-20.4-34.4-20.4-55.4
			c0-3.8,3.2-6.9,7.1-6.9c3.9,0,7.1,3.1,7.1,6.9c0,17.4,6.2,34.4,16.9,46.4c12.5,14.1,30.9,21.5,53.2,21.5
			c29.1,0,49.6-10.9,61.1-32.4c4-7.5,4.7-16.1,2-24.2c-2.8-8.2-8.7-14.9-16.7-18.7L251,208.9c-11.7-5.6-20.5-15.8-24.2-27.9
			c-3.7-12.1-2-25.3,4.6-36.1c18.4-30.2,51.7-36.5,76.4-36.5c20,0,39.9,7.7,54.7,21.2c11.7,10.7,25.5,29.9,25.5,60.7
			c0,3.8-3.2,6.9-7.1,6.9s-7.1-3.1-7.1-6.9c0-44.2-34-68.1-66-68.1c-30.5,0-52.1,10-64.2,29.8c-4.7,7.7-5.8,16.6-3.2,25.2
			c2.6,8.6,8.6,15.5,16.9,19.5l99.1,47.8c11.4,5.5,19.9,15,23.9,26.8c3.9,11.6,2.9,23.9-2.9,34.7
			C367.7,324.1,347.1,345.7,303.8,345.7z"/>
	</g>
	<path id="XMLID_358_" class="st2" d="M783.7,146.7c-8.7-17.4-27.2-38.2-65.9-38.2c-41.2,0-64,17.4-75.5,32.1
		c-1.4,1.7-4.2,3.5-4.2,5.2v-30.5c0-3.8-3.1-6.9-7-6.9s-7,3.1-7,6.9v223.6c0,3.8,3.1,6.9,7,6.9s7-3.1,7-6.9V188.6
		c0-11,4-25.1,15.5-39.7c13.9-17.7,35.7-26.7,64.1-26.7c59.9,0,61.4,59.2,61.4,61.7v154.9c0,3.8,3.1,6.9,7,6.9s7-3.1,7-6.9V183.9
		C793,183.2,792.8,165,783.7,146.7z"/>
	<g id="XMLID_356_">
		<path id="XMLID_357_" class="st2" d="M916.8,345.7c-32.8,0-52.4-15.9-63-29.2c-13.6-17-18.6-37-18.7-49.9l0-5.1
			c-0.2-20.4-0.4-54.6,0-72.4c0.2-8.6,2.4-30.9,17.8-50.6c10.6-13.5,30.8-29.6,67.2-29.6c41.9,0,62.3,22.1,72.1,40.5
			c10.3,19.6,10.9,39,10.9,39.8c0.1,3.8-3,6.9-6.9,7c-3.9,0.1-7.2-2.9-7.2-6.7c-0.1-2.8-2.6-66.9-68.8-66.9
			c-24.6,0-43.4,8.1-55.9,24.1c-13.3,17-14.8,36.9-14.9,42.6c-0.5,17.6-0.2,51.7,0,72l0,5.1c0.1,10.2,4.2,27.2,15.7,41.6
			c8.7,10.9,24.8,23.9,51.8,23.9c28.9,0,49.5-9.5,61.4-28.1c10-15.7,10.7-33.7,10.7-38.8c0-3.8,3.2-6.9,7.1-6.9s7.1,3.1,7.1,6.9
			c0,7.7-1.3,27.7-12.8,46C972.1,339.6,940.3,345.7,916.8,345.7z"/>
	</g>
	<path id="XMLID_353_" class="st2" d="M152.7,133c-13.8-16.1-33.9-24.6-59-24.6c-26.6,0-48.5,7.8-63.8,22.6c-2.8,2.7-2.7,7,0.1,9.7
		c2.8,2.7,7.3,2.7,10.1,0c12.7-12.3,30.7-18.6,53.7-18.6c46.7,0,63.1,33.1,63.1,64.2v7.3c-9,4.4-27.9,15.5-65,15.5
		c-25.4,0-44.8,7-59.8,21.5c-27.8,27-17,72.1,2.6,91.1c15.9,15.5,36.9,24.3,59,24.3c0.1,0,0.2,0,0.2,0c21.6,0,41.9-8.9,57.2-23.9
		l0.5-1.1h0c2.1,0,5.3-3.8,5.3-6.1v24c0,3.8,2.6,6.9,6.5,6.9s6.5-3.1,6.5-6.9V186.3C170,165.6,164.4,146.6,152.7,133z M140.9,312.4
		l0,0.3C128.3,325,111.7,332,94.1,332c-0.1,0-0.1,0-0.2,0c-18.3,0-35.7-7.2-49-20.1c-7.5-7.3-13.3-20.4-14.8-33.3
		c-1.2-10.8-0.1-26.2,12.3-38.1c12.2-11.8,28.2-17.5,49.6-17.5c31.8,0,54-7.5,65-13.5v56.4C157,286.9,152.2,301.3,140.9,312.4z"/>
</g>
</svg>
